#!OML:ASF I:\Actors\actors\Patient Classification 2\Patient 1\Session 1\actor1.ASF
:FULLY-SPECIFIED
:DEGREES
392
root 0.648564 18.1804 4.96392 -9.43962 2.79828 -3.53232
lowerback 15.3286 0.0179249 6.46737
upperback 4.51449 1.23195 4.5245
thorax -3.75386 0.591632 0.895694
lowerneck -9.8951 -4.3934 -4.42073
upperneck 17.983 -4.91041 -1.78991
head 7.21725 -2.80078 -0.299809
rclavicle 1.17283e-014 2.70347e-014
rhumerus -25.9142 5.72711 -61.8222
rradius 63.1216
rwrist 10.3712
rhand -18.5318 -47.2753
rfingers 7.12502
rthumb 7.75703 -77.113
lclavicle 1.17283e-014 2.70347e-014
lhumerus 34.2596 -35.2245 63.7977
lradius 67.6255
lwrist 12.0897
lhand -12.3358 -17.9321
lfingers 7.12502
lthumb 13.7334 11.5947
rfemur 13.6549 -0.37315 13.0569
rtibia 7.00808
rfoot -18.3922 -11.0389
rtoes -8.48152
lfemur -6.50097 5.05408 -17.4724
ltibia 38.5206
lfoot -24.5653 5.61662
ltoes -54.2657
393
root 0.634676 18.181 4.97423 -9.4151 2.95097 -3.55263
lowerback 15.2813 -0.00224789 6.40801
upperback 4.47523 1.19553 4.5315
thorax -3.77288 0.573055 0.943022
lowerneck -9.82543 -4.39035 -4.48642
upperneck 17.9419 -4.90823 -1.74138
head 7.19474 -2.79921 -0.270987
rclavicle 1.19271e-014 5.24792e-014
rhumerus -27.4592 5.93485 -61.7259
rradius 64.8274
rwrist 10.1879
rhand -18.9279 -47.0356
rfingers 7.12502
rthumb 7.37477 -76.887
lclavicle 1.19271e-014 5.24792e-014
lhumerus 34.3017 -35.3142 63.699
lradius 67.7114
lwrist 12.1999
lhand -12.3045 -17.9263
lfingers 7.12502
lthumb 13.7635 11.5985
rfemur 13.7592 -0.560629 13.0907
rtibia 6.88161
rfoot -18.3826 -11.0106
rtoes -8.496
lfemur -6.5058 4.99293 -17.4095
ltibia 38.5092
lfoot -24.5442 5.51866
ltoes -54.3041
394
root 0.623734 18.1801 4.98451 -9.42508 3.1816 -3.62253
lowerback 15.3925 -0.102152 6.48767
upperback 4.37368 1.09395 4.49788
thorax -3.94107 0.517909 0.88129
lowerneck -9.75967 -4.36484 -4.53243
upperneck 17.9525 -4.88038 -1.6801
head 7.18909 -2.78369 -0.239738
rclavicle 1.86858e-014 0
rhumerus -29.1067 6.14533 -61.705
rradius 66.4315
rwrist 10.0365
rhand -19.3399 -46.9624
rfingers 7.12502
rthumb 6.97708 -76.8275
lclavicle 1.86858e-014 0
lhumerus 34.229 -35.367 63.598
lradius 67.8082
lwrist 12.2001
lhand -12.3549 -17.9218
lfingers 7.12502
lthumb 13.715 11.6062
rfemur 13.8932 -0.826125 13.1481
rtibia 6.80544
rfoot -18.4134 -10.9722
rtoes -8.65195
lfemur -6.49382 4.84201 -17.3171
ltibia 38.5063
lfoot -24.5632 5.4338
ltoes -54.3062
395
root 0.614605 18.1786 4.99416 -9.45989 3.41291 -3.64757
lowerback 15.3348 -0.166934 6.40019
upperback 4.40891 0.990932 4.56237
thorax -3.87873 0.469499 1.01739
lowerneck -9.72111 -4.35155 -4.63089
upperneck 17.8399 -4.84949 -1.67612
head 7.14843 -2.77356 -0.217076
rclavicle -1.13307e-014 0
rhumerus -30.6144 6.25589 -61.4649
rradius 67.9619
rwrist 10.0213
rhand -19.6322 -46.9972
rfingers 7.12502
rthumb 6.69486 -76.8713
lclavicle -1.13307e-014 0
lhumerus 34.3091 -35.262 63.5795
lradius 67.8655
lwrist 12.2009
lhand -12.372 -17.9206
lfingers 7.12502
lthumb 13.6985 11.6086
rfemur 14.0368 -1.07934 13.1491
rtibia 6.76813
rfoot -18.4309 -10.9572
rtoes -8.71913
lfemur -6.45436 4.67487 -17.2858
ltibia 38.5086
lfoot -24.6045 5.3496
ltoes -54.2235
396
root 0.606342 18.1771 5.00388 -9.47207 3.60654 -3.63126
lowerback 15.3209 -0.193895 6.27762
upperback 4.39951 0.94038 4.63337
thorax -3.88642 0.444856 1.17045
lowerneck -9.67811 -4.34654 -4.80345
upperneck 17.7764 -4.82606 -1.62265
head 7.12656 -2.76809 -0.1679
rclavicle -4.37326e-015 3.02153e-014
rhumerus -32.2929 6.30105 -61.1501
rradius 69.5834
rwrist 10.0219
rhand -19.9269 -47.0875
rfingers 7.12502
rthumb 6.41038 -76.9705
lclavicle -4.37326e-015 3.02153e-014
lhumerus 34.3236 -35.2197 63.6282
lradius 67.9293
lwrist 12.2464
lhand -12.2767 -17.9609
lfingers 7.12502
lthumb 13.7904 11.562
rfemur 14.1376 -1.29054 13.1114
rtibia 6.74197
rfoot -18.4024 -10.9684
rtoes -8.89236
lfemur -6.43603 4.56434 -17.2967
ltibia 38.5129
lfoot -24.5953 5.25145
ltoes -54.1806
397
root 0.598364 18.1774 5.01519 -9.44391 3.78129 -3.61948
lowerback 15.1826 -0.206416 6.17711
upperback 4.42997 0.89638 4.69369
thorax -3.78356 0.426092 1.29827
lowerneck -9.6608 -4.35468 -4.91921
upperneck 17.7196 -4.82282 -1.60157
head 7.1092 -2.7714 -0.140934
rclavicle -1.43125e-014 5.725e-014
rhumerus -34.0361 6.24455 -60.8581
rradius 71.3454
rwrist 9.957
rhand -20.3105 -46.9343
rfingers 7.12502
rthumb 6.04003 -76.8282
lclavicle -1.43125e-014 5.725e-014
lhumerus 34.4369 -35.1657 63.5644
lradius 68.0025
lwrist 12.3079
lhand -12.234 -17.9505
lfingers 7.12502
lthumb 13.8315 11.5696
rfemur 14.199 -1.48972 13.0859
rtibia 6.71175
rfoot -18.4008 -10.9724
rtoes -9.25509
lfemur -6.45726 4.48197 -17.2975
ltibia 38.5151
lfoot -24.5484 5.16735
ltoes -54.2459
398
root 0.591268 18.1794 5.02814 -9.4169 3.94627 -3.61415
lowerback 15.1145 -0.249666 6.13405
upperback 4.4045 0.829149 4.70264
thorax -3.77625 0.393065 1.34394
lowerneck -9.6131 -4.33963 -4.92462
upperneck 17.7402 -4.79861 -1.62956
head 7.10662 -2.76279 -0.145977
rclavicle -1.09332e-014 6.36111e-015
rhumerus -35.8861 6.17556 -60.707
rradius 73.1533
rwrist 9.97146
rhand -20.7205 -46.5899
rfingers 7.12502
rthumb 5.6442 -76.4948
lclavicle -1.09332e-014 6.36111e-015
lhumerus 34.4964 -35.1355 63.3979
lradius 68.082
lwrist 12.4519
lhand -12.3592 -17.7951
lfingers 7.12502
lthumb 13.7108 11.7332
rfemur 14.27 -1.68088 13.0712
rtibia 6.68007
rfoot -18.4132 -10.9607
rtoes -9.34336
lfemur -6.4598 4.41304 -17.2851
ltibia 38.5101
lfoot -24.5143 5.0827
ltoes -54.3851
399
root 0.586075 18.1806 5.0413 -9.43908 4.10099 -3.60063
lowerback 15.2017 -0.335578 6.12797
upperback 4.32283 0.728555 4.67093
thorax -3.91166 0.340024 1.33277
lowerneck -9.53819 -4.28193 -4.89963
upperneck 17.7957 -4.7186 -1.67819
head 7.10828 -2.72782 -0.157267
rclavicle -7.55382e-015 -3.97569e-014
rhumerus -37.7878 6.17645 -60.6807
rradius 74.9288
rwrist 10.1272
rhand -21.0901 -46.3277
rfingers 7.12502
rthumb 5.28737 -76.2418
lclavicle -7.55382e-015 -3.97569e-014
lhumerus 34.3978 -35.0905 63.2653
lradius 68.155
lwrist 12.6155
lhand -12.4911 -17.7048
lfingers 7.12502
lthumb 13.5837 11.8321
rfemur 14.3776 -1.85319 13.0419
rtibia 6.67942
rfoot -18.4322 -10.9349
rtoes -9.34463
lfemur -6.39423 4.36139 -17.2779
ltibia 38.4927
lfoot -24.4879 4.97691
ltoes -54.5351
400
root 0.5796 18.1805 5.05465 -9.46827 4.23496 -3.55416
lowerback 15.0722 -0.369747 5.90557
upperback 4.37837 0.637615 4.74602
thorax -3.7889 0.298833 1.55241
lowerneck -9.43912 -4.23447 -4.89804
upperneck 17.6878 -4.63948 -1.79791
head 7.05186 -2.69842 -0.184888
rclavicle 2.98177e-015 -3.33958e-014
rhumerus -39.4728 6.11978 -60.5426
rradius 76.6075
rwrist 10.322
rhand -21.3903 -46.3448
rfingers 7.12502
rthumb 4.99749 -76.2658
lclavicle 2.98177e-015 -3.33958e-014
lhumerus 34.3519 -34.8709 63.3557
lradius 68.1694
lwrist 12.5831
lhand -12.4769 -17.7603
lfingers 7.12502
lthumb 13.5974 11.7756
rfemur 14.488 -1.99922 12.9854
rtibia 6.6891
rfoot -18.528 -10.8791
rtoes -9.38118
lfemur -6.31093 4.38232 -17.2836
ltibia 38.4596
lfoot -24.4287 4.82268
ltoes -54.6205
